<svg xmlns="http://www.w3.org/2000/svg" width="82.823" height="27.654" viewBox="0 0 82.823 27.654">
  <g id="Layer_1" data-name="Layer 1" transform="translate(-6.611 -7.98)">
    <path id="Path_14085" data-name="Path 14085" d="M46.229,13.9v-1.4a.261.261,0,0,1,.261-.27h1.2a14.718,14.718,0,0,1,2.873.225,3.6,3.6,0,0,1,1.8.964,3.846,3.846,0,0,1,1.018,2.081,19.312,19.312,0,0,1,.27,3.648,13.214,13.214,0,0,1-.567,4.441,3.36,3.36,0,0,1-1.8,2.036,9.521,9.521,0,0,1-3.6.531l-3.225.045A1.693,1.693,0,0,0,42.77,27.9h0A1.693,1.693,0,0,0,44.463,29.6l3.6-.045c3.4,0,5.882-.766,7.431-2.306s2.333-4.233,2.333-8.106a17.825,17.825,0,0,0-.594-5,6.764,6.764,0,0,0-1.855-3.162,7.206,7.206,0,0,0-3.017-1.639,16.726,16.726,0,0,0-4.3-.468H44.716a1.873,1.873,0,0,0-1.873,1.873v3.171a1.693,1.693,0,0,0,1.693,1.693h0a1.693,1.693,0,0,0,1.693-1.7Z" transform="translate(-4.246 -0.88)"/>
    <path id="Path_14086" data-name="Path 14086" d="M73.644,27.917h0a1.513,1.513,0,0,1-1.153,1.8,16.834,16.834,0,0,1-3.846.432,7.512,7.512,0,0,1-5.4-1.8q-1.9-1.8-1.9-6.215T63.141,16a7.14,7.14,0,0,1,5.269-1.8,10.592,10.592,0,0,1,3.1.369,4.423,4.423,0,0,1,2.063,1.36,5.729,5.729,0,0,1,1.189,2.747,18.08,18.08,0,0,1,.252,2.954,1.5,1.5,0,0,1-1.5,1.531h-8.35a4.162,4.162,0,0,0,.9,3.1,4.5,4.5,0,0,0,3,.793,14.547,14.547,0,0,0,2.8-.27A1.5,1.5,0,0,1,73.644,27.917ZM68.555,17.109a3.6,3.6,0,0,0-2.468.676,3.828,3.828,0,0,0-.856,2.27.261.261,0,0,0,.261.288h5.783a.261.261,0,0,0,.261-.279,3.729,3.729,0,0,0-.712-2.324,3.179,3.179,0,0,0-2.279-.676Z" transform="translate(-6.09 -1.409)"/>
    <path id="Path_14087" data-name="Path 14087" d="M91.453,20.026V27.6a1.864,1.864,0,0,1-1.369,1.8,19.374,19.374,0,0,1-5.458.73q-3.6,0-5.008-1.054t-1.378-4c0-1.973.5-3.3,1.468-3.963a8.106,8.106,0,0,1,4.5-.991,18.267,18.267,0,0,1,3.747.414,3.651,3.651,0,0,0-.712-2.657c-.468-.432-1.5-.64-3.062-.64a14.3,14.3,0,0,0-3.107.324,1.522,1.522,0,0,1-1.8-1.135h0a1.513,1.513,0,0,1,1.162-1.8,22.887,22.887,0,0,1,4.5-.45c2.315,0,3.981.423,5,1.288S91.453,17.828,91.453,20.026Zm-3.522,6.44V23.394a.441.441,0,0,0-.36-.441,16.212,16.212,0,0,0-2.639-.2,4.5,4.5,0,0,0-2.243.387c-.387.261-.576.856-.576,1.8a2.6,2.6,0,0,0,.531,1.946,3.936,3.936,0,0,0,2.252.432,9.124,9.124,0,0,0,2.7-.405A.45.45,0,0,0,87.932,26.466Z" transform="translate(-7.768 -1.408)"/>
    <path id="Path_14088" data-name="Path 14088" d="M96.537,8.86a1.8,1.8,0,0,1,1.846,1.8V24.929A6.089,6.089,0,0,0,98.717,27a1.8,1.8,0,0,1-.991,2.306h0a1.8,1.8,0,0,1-2.4-.946,7.99,7.99,0,0,1-.621-3.252V10.7a1.8,1.8,0,0,1,1.8-1.8Z" transform="translate(-9.402 -0.88)"/>
    <path id="Path_14089" data-name="Path 14089" d="M38.475,34.35a1.964,1.964,0,0,0-1.441.6,2.028,2.028,0,1,0,1.441-.6Z" transform="translate(-3.618 -3.41)"/>
    <path id="Path_14090" data-name="Path 14090" d="M32.816,34.34a2.09,2.09,0,1,0,1.441.612,1.964,1.964,0,0,0-1.441-.612Z" transform="translate(-3.047 -3.409)"/>
    <path id="Path_14091" data-name="Path 14091" d="M35.675,15.228a1.612,1.612,0,0,0-1.6,1.612v4.585a4.441,4.441,0,0,1-1.018,3.225,3.027,3.027,0,0,1-1.234.748,3.918,3.918,0,0,1-1.873.1,3.5,3.5,0,0,1-1.666-.829,4.368,4.368,0,0,1-1.036-3.243V10.472A1.621,1.621,0,0,0,25.623,8.86h-.351a1.621,1.621,0,0,0-1.621,1.612V26q0,3.747-1.621,5.4a6.242,6.242,0,0,1-4.675,1.648q-6.4,0-6.4-6.35a17.357,17.357,0,0,1,.27-2.972A1.621,1.621,0,0,0,9.635,21.8h0a1.621,1.621,0,0,0-1.567,1.225,18.492,18.492,0,0,0-.558,4.323,10.142,10.142,0,0,0,.847,4.305,6.981,6.981,0,0,0,2.3,2.846,10.5,10.5,0,0,0,3.089,1.5,12.9,12.9,0,0,0,3.6.5,10.133,10.133,0,0,0,6.728-2.153,9.358,9.358,0,0,0,3.044-6.4,6.179,6.179,0,0,0,2.7,1.072,7.124,7.124,0,0,0,2.261-.063,6.89,6.89,0,0,0,3.531-1.846,7.692,7.692,0,0,0,2.063-5.684V16.84a1.612,1.612,0,0,0-1.612-1.612Z" transform="translate(-0.745 -0.88)"/>
    <path id="Path_14092" data-name="Path 14092" d="M10.348,14.842a3.026,3.026,0,0,1-2.567-1.45,2.765,2.765,0,0,1-.441-1.5,3.053,3.053,0,0,1,5.323-2,2.828,2.828,0,0,1,.775,1.919,3,3,0,0,1-2.351,2.981l-.324.054h-.414m.135-5.4a2.612,2.612,0,0,0-1.648.45,2.369,2.369,0,0,0-1.018,2.324,2.324,2.324,0,0,0,.9,1.531,2.531,2.531,0,0,0,1.928.576,2.486,2.486,0,0,0,1.513-.694,2.378,2.378,0,0,0,.279-3.18A2.5,2.5,0,0,0,10.465,9.42" transform="translate(-0.729 -0.881)"/>
    <path id="Path_14093" data-name="Path 14093" d="M11.641,12.662c-.135-.171-.27-.342-.4-.522h.072a.748.748,0,0,0,.4-.667.639.639,0,0,0-.18-.477.811.811,0,0,0-.459-.216H9.65v2.486a3.684,3.684,0,0,0,.631,0v-.9h.3l.144.189.5.667a.1.1,0,0,0,.09.063h.73l-.414-.531m-.847-.856a1.855,1.855,0,0,1-.5,0v-.658h.477a.267.267,0,0,1,.288.279.333.333,0,0,1-.261.36" transform="translate(-0.958 -1.07)"/>
  </g>
</svg>
